<svg width="21" height="20" viewBox="0 0 21 20" fill="none" xmlns="http://www.w3.org/2000/svg">
<path fill-rule="evenodd" clip-rule="evenodd" d="M10.7346 0.25C5.34984 0.25 0.984619 4.61522 0.984619 10C0.984619 15.3848 5.34984 19.75 10.7346 19.75C16.1194 19.75 20.4846 15.3848 20.4846 10C20.4789 4.61758 16.117 0.255684 10.7346 0.25ZM5.67962 16.5156C6.78222 14.7912 8.68782 13.7478 10.7346 13.7478C12.7814 13.7478 14.687 14.7912 15.7896 16.5156C12.8163 18.828 8.65294 18.828 5.67962 16.5156ZM7.73462 9.25C7.73462 7.59315 9.07776 6.25 10.7346 6.25C12.3915 6.25 13.7346 7.59315 13.7346 9.25C13.7346 10.9069 12.3915 12.25 10.7346 12.25C9.07776 12.25 7.73462 10.9069 7.73462 9.25ZM16.8996 15.4759C16.0632 14.2638 14.887 13.3261 13.519 12.7806C15.0253 11.5943 15.6144 9.58375 14.9866 7.77207C14.3588 5.96039 12.652 4.74548 10.7346 4.74548C8.81725 4.74548 7.11046 5.96039 6.48267 7.77207C5.85488 9.58375 6.44398 11.5943 7.95024 12.7806C6.58226 13.3261 5.40609 14.2638 4.56962 15.4759C1.62508 12.1647 1.82214 7.11881 5.01595 4.0473C8.20975 0.975791 13.2595 0.975791 16.4533 4.0473C19.6471 7.11881 19.8442 12.1647 16.8996 15.4759Z" fill="#C79E94"/>
</svg>
