<svg width="25" height="24" viewBox="0 0 25 24" fill="none" xmlns="http://www.w3.org/2000/svg">
<g clip-path="url(#clip0_21_101)">
<path fill-rule="evenodd" clip-rule="evenodd" d="M21.9346 10.8328V19.5C21.9346 20.3284 21.263 21 20.4346 21H16.6846C15.8561 21 15.1846 20.3284 15.1846 19.5V15.75C15.1846 15.3358 14.8488 15 14.4346 15H11.4346C11.0204 15 10.6846 15.3358 10.6846 15.75V19.5C10.6846 20.3284 10.013 21 9.18457 21H5.43457C4.60614 21 3.93457 20.3284 3.93457 19.5V10.8328C3.93451 10.4131 4.1103 10.0125 4.41926 9.72844L11.9193 2.65219L11.9296 2.64188C12.5018 2.1215 13.3758 2.1215 13.948 2.64188C13.9512 2.64554 13.9547 2.64899 13.9583 2.65219L21.4583 9.72844C21.7642 10.014 21.9368 10.4144 21.9346 10.8328Z" fill="white"/>
</g>
<defs>
<clipPath id="clip0_21_101">
<rect width="24" height="24" fill="white" transform="translate(0.93457)"/>
</clipPath>
</defs>
</svg>
