<svg width="25" height="24" viewBox="0 0 25 24" fill="none" xmlns="http://www.w3.org/2000/svg">
<g clip-path="url(#clip0_21_122)">
<path fill-rule="evenodd" clip-rule="evenodd" d="M7.28467 9.75C7.28467 9.33579 7.62045 9 8.03467 9H17.0347C17.4489 9 17.7847 9.33579 17.7847 9.75C17.7847 10.1642 17.4489 10.5 17.0347 10.5H8.03467C7.62045 10.5 7.28467 10.1642 7.28467 9.75ZM8.03467 13.5H17.0347C17.4489 13.5 17.7847 13.1642 17.7847 12.75C17.7847 12.3358 17.4489 12 17.0347 12H8.03467C7.62045 12 7.28467 12.3358 7.28467 12.75C7.28467 13.1642 7.62045 13.5 8.03467 13.5ZM22.2847 5.25V19.5C22.2845 19.7599 22.1498 20.0012 21.9287 20.1378C21.7075 20.2743 21.4315 20.2866 21.199 20.1703L18.5347 18.8381L15.8703 20.1703C15.659 20.276 15.4103 20.276 15.199 20.1703L12.5347 18.8381L9.87029 20.1703C9.65903 20.276 9.41031 20.276 9.19904 20.1703L6.53467 18.8381L3.87029 20.1703C3.63786 20.2866 3.36179 20.2743 3.14064 20.1378C2.9195 20.0012 2.78481 19.7599 2.78467 19.5V5.25C2.78467 4.42157 3.45624 3.75 4.28467 3.75H20.7847C21.6131 3.75 22.2847 4.42157 22.2847 5.25ZM20.7847 5.25H4.28467V18.2869L6.19904 17.3288C6.41031 17.223 6.65903 17.223 6.87029 17.3288L9.53467 18.6619L12.199 17.3288C12.4103 17.223 12.659 17.223 12.8703 17.3288L15.5347 18.6619L18.199 17.3288C18.4103 17.223 18.659 17.223 18.8703 17.3288L20.7847 18.2869V5.25Z" fill="#C79E94"/>
</g>
<defs>
<clipPath id="clip0_21_122">
<rect width="24" height="24" fill="white" transform="translate(0.534668)"/>
</clipPath>
</defs>
</svg>
