<svg width="18" height="18" viewBox="0 0 18 18" fill="none" xmlns="http://www.w3.org/2000/svg">
<path d="M17.0429 11.7758L12.9832 9.95649C12.7993 9.87767 12.5986 9.84598 12.3993 9.86429C12.2 9.8826 12.0085 9.95032 11.842 10.0613C11.8251 10.0722 11.809 10.0843 11.7938 10.0974L9.67204 11.9021C9.65003 11.9141 9.62552 11.9208 9.60046 11.9217C9.5754 11.9226 9.55048 11.9177 9.52767 11.9073C8.16384 11.249 6.75103 9.84477 6.09017 8.49985C6.07916 8.47737 6.07344 8.45268 6.07344 8.42766C6.07344 8.40264 6.07916 8.37794 6.09017 8.35547L7.90087 6.20703C7.91388 6.19115 7.92593 6.17451 7.93696 6.15719C8.04644 5.99005 8.11256 5.79827 8.12937 5.59917C8.14617 5.40008 8.11312 5.19993 8.03321 5.0168L6.22681 0.963988C6.12422 0.724746 5.94681 0.525227 5.7212 0.395378C5.49559 0.265529 5.23395 0.212353 4.97556 0.243832C3.85255 0.391469 2.82172 0.942966 2.0757 1.79526C1.32969 2.64756 0.919531 3.74233 0.921885 4.875C0.921885 11.6039 6.3961 17.0781 13.125 17.0781C14.2576 17.0803 15.3523 16.6701 16.2046 15.9241C17.0568 15.1781 17.6084 14.1474 17.7562 13.0245C17.7876 12.7673 17.7351 12.5068 17.6066 12.2818C17.4781 12.0568 17.2804 11.8794 17.0429 11.7758ZM13.125 16.0469C6.96501 16.0469 1.95314 11.035 1.95314 4.875C1.95026 3.99322 2.26853 3.14056 2.84847 2.47632C3.42841 1.81209 4.23035 1.38172 5.10446 1.26563H5.12423C5.15886 1.26627 5.19249 1.27737 5.22071 1.29746C5.24892 1.31755 5.27041 1.34569 5.28235 1.37821L7.09563 5.42672C7.10598 5.44923 7.11133 5.47371 7.11133 5.49848C7.11133 5.52325 7.10598 5.54773 7.09563 5.57024L5.28149 7.72383C5.26803 7.73926 5.25568 7.75563 5.24454 7.77282C5.13102 7.94612 5.06418 8.14579 5.05047 8.35251C5.03677 8.55922 5.07668 8.76597 5.16634 8.95274C5.9286 10.5134 7.50126 12.074 9.07907 12.8363C9.26693 12.9254 9.47469 12.9644 9.68208 12.9493C9.88948 12.9342 10.0894 12.8657 10.2624 12.7503C10.2788 12.7391 10.2951 12.7271 10.3106 12.7142L12.4315 10.9095C12.4524 10.8983 12.4756 10.8917 12.4993 10.8902C12.523 10.8887 12.5468 10.8924 12.569 10.9009L16.6295 12.7202C16.6627 12.7344 16.6906 12.7586 16.7093 12.7894C16.7279 12.8202 16.7364 12.8562 16.7335 12.8921C16.618 13.7666 16.1881 14.5692 15.524 15.1498C14.8599 15.7303 14.0071 16.0492 13.125 16.0469Z" fill="#807A7A"/>
</svg>
